<svg width="512" height="512" viewBox="0 0 512 512" fill="none" xmlns="http://www.w3.org/2000/svg">
<g clip-path="url(#clip0_2354_426)">
<path fill-rule="evenodd" clip-rule="evenodd" d="M273.575 154.224C316.162 154.224 350.687 119.699 350.687 77.1118C350.687 34.5241 316.162 0 273.575 0C230.987 0 196.463 34.5241 196.463 77.1118C196.463 119.699 230.987 154.224 273.575 154.224ZM74.66 321.489C57.246 328.174 37.7102 319.034 31.0256 301.62C24.341 284.206 33.0389 264.67 50.4529 257.985L435.099 109.644C435.099 109.644 470.324 98.7287 480.843 128.951C490.169 163.225 461.416 172.585 461.416 172.585L371.529 207.327C359.292 212.057 351.224 223.825 351.224 236.944L351.223 477.981C351.223 496.769 335.992 512 317.203 512C298.415 512 283.184 496.769 283.184 477.981V380.457C283.184 375.921 278.648 371.385 274.111 371.385C269.576 371.385 265.04 375.921 265.04 380.457V477.981C265.04 496.769 249.809 512 231.02 512C212.231 512 197 496.769 197 477.981L196.665 297.827C196.644 286.71 185.523 279.047 175.14 283.02C143.575 295.1 87.0524 316.732 74.66 321.489Z" fill="black"/>
</g>
<defs>
<clipPath id="clip0_2354_426">
<rect width="512" height="512" fill="white"/>
</clipPath>
</defs>
</svg>
