<svg width="512" height="512" viewBox="0 0 512 512" fill="none" xmlns="http://www.w3.org/2000/svg">
<g clip-path="url(#clip0_2354_426)">
<path d="M350.687 77.1118C350.687 119.699 316.163 154.224 273.575 154.224C230.987 154.224 196.463 119.699 196.463 77.1118C196.463 34.5241 230.987 0 273.575 0C316.163 0 350.687 34.5241 350.687 77.1118Z" fill="black"/>
<path d="M31.0256 301.62C37.7102 319.034 57.246 328.174 74.66 321.489C87.0524 316.732 143.575 295.1 175.14 283.02C185.523 279.047 196.644 286.71 196.665 297.827L197 477.981C197 496.769 212.231 512 231.02 512C249.809 512 265.04 496.769 265.04 477.981V380.457C265.04 375.921 269.576 371.385 274.111 371.385C278.648 371.385 283.184 375.921 283.184 380.457V477.981C283.184 496.769 298.415 512 317.203 512C335.992 512 351.223 496.769 351.223 477.981L351.224 236.944C351.224 223.825 359.292 212.057 371.529 207.327L461.416 172.585C461.416 172.585 490.169 163.225 480.843 128.951C470.324 98.7287 435.099 109.644 435.099 109.644L50.4529 257.985C33.0389 264.67 24.341 284.206 31.0256 301.62Z" fill="black"/>
</g>
<defs>
<clipPath id="clip0_2354_426">
<rect width="512" height="512" fill="white"/>
</clipPath>
</defs>
</svg>
