<svg width="512" height="512" viewBox="0 0 512 512" fill="none" xmlns="http://www.w3.org/2000/svg">
<rect width="512" height="512" rx="248.544" fill="black"/>
<path d="M312.509 125.071C312.509 156.591 286.958 182.143 255.438 182.143C223.918 182.143 198.367 156.591 198.367 125.071C198.367 93.5517 223.918 68 255.438 68C286.958 68 312.509 93.5517 312.509 125.071Z" fill="white"/>
<path d="M77.4619 289.814C72.5146 276.926 78.952 262.467 91.8403 257.52L378.083 147.641C390.971 142.694 405.43 149.132 410.377 162.02C415.325 174.908 408.887 189.367 395.999 194.314L163.117 284.535L109.756 304.192C96.868 309.14 82.4093 302.702 77.4619 289.814Z" fill="white"/>
<path d="M263.831 224.107C263.831 210.201 275.104 198.928 289.01 198.928C302.915 198.928 314.188 210.201 314.188 224.107V415.464C314.188 429.37 302.915 440.642 289.01 440.642C275.104 440.642 263.831 429.37 263.831 415.464L263.831 346.643V339.928L263.831 224.107Z" fill="white"/>
<path d="M200.045 269.534C200.045 255.628 211.318 212.357 225.224 212.357C239.13 212.357 250.403 223.63 250.403 237.536L250.402 339.928V341.607L250.403 346.643V418.821C250.403 432.727 239.13 444 225.224 444C211.318 444 200.045 432.727 200.045 418.821L200.045 287.893V279.529L200.045 269.534Z" fill="white"/>
<path d="M240.331 235.857H273.902V339.928H263.831H257.116H252.08H250.402H240.331V235.857Z" fill="white"/>
<path d="M200.045 269.534L184.272 275.588L163.117 284.535C189.974 276.143 200.045 279.5 200.045 287.893V279.529L200.045 269.534Z" fill="white"/>
<path d="M250.402 339.928V341.607L250.403 346.643C250.403 343.285 253.759 339.928 257.116 339.928H252.08H250.402Z" fill="white"/>
<path d="M263.831 339.928H257.116C260.474 339.928 263.831 343.285 263.831 346.643V339.928Z" fill="white"/>
</svg>
